<svg version="1.1" xmlns="http://www.w3.org/2000/svg" xmlns:xlink="http://www.w3.org/1999/xlink" width="24.18888" height="96.07978" viewBox="0,0,24.18888,96.07978"><g transform="translate(-227.90558,-131.97122)"><g data-paper-data="{&quot;isPaintingLayer&quot;:true}" fill-rule="evenodd" stroke="#231f20" stroke-width="0" stroke-linecap="round" stroke-linejoin="round" stroke-miterlimit="10" stroke-dasharray="" stroke-dashoffset="0" style="mix-blend-mode: normal"><g fill="#e3be7e"><g><path d="M227.91283,228.051l-0.00723,-95.77023l24.18885,0.14773l-0.03983,95.54831z" opacity="0.1"/><path d="M227.91284,227.87406l-0.00723,-95.77023l24.18885,0.14773l-0.03983,95.54831z" opacity="0.1"/></g><path d="M227.91284,227.96253l-0.00723,-95.77023l24.18885,0.14773l-0.03983,95.54831z" opacity="0.1"/><path d="M227.91284,227.78568l-0.00723,-95.77023l24.18885,0.14773l-0.03983,95.54831z" opacity="0.1"/></g><g fill="#e3be7e"><g><path d="M227.91284,228.00677l-0.00723,-95.77023l24.18885,0.14773l-0.03983,95.54831z" opacity="0.1"/><path d="M227.91284,227.82984l-0.00723,-95.77023l24.18885,0.14773l-0.03983,95.54831z" opacity="0.1"/></g><path d="M227.91284,227.9183l-0.00723,-95.77023l24.18885,0.14773l-0.03983,95.54831z" opacity="0.1"/><path d="M227.91284,227.74145l-0.00723,-95.77023l24.18885,0.14773l-0.03983,95.54831z" opacity="0.1"/></g><g fill="#e3be7e"><g><path d="M227.91282,228.01778l-0.00723,-95.77023l24.18885,0.14773l-0.03983,95.54831z" opacity="0.1"/><path d="M227.91282,227.84093l-0.00723,-95.77023l24.18885,0.14773l-0.03983,95.54831z" opacity="0.1"/></g><path d="M227.91282,227.92938l-0.00723,-95.77023l24.18885,0.14773l-0.03983,95.54831z" opacity="0.1"/><path d="M227.91282,227.75247l-0.00723,-95.77023l24.18885,0.14773l-0.03983,95.54831z" opacity="0.1"/></g><g fill="#e3ba74"><g><path d="M227.91281,228.01778l-0.00723,-95.77023l24.18885,0.14773l-0.03983,95.54831z" opacity="0.1"/><path d="M227.91281,227.84092l-0.00723,-95.77023l24.18885,0.14773l-0.03983,95.54831z" opacity="0.1"/></g><path d="M227.91281,227.92937l-0.00723,-95.77023l24.18885,0.14773l-0.03983,95.54831z" opacity="0.1"/><path d="M227.91281,227.75247l-0.00723,-95.77023l24.18885,0.14773l-0.03983,95.54831z" opacity="0.1"/></g></g></g></svg>