<svg version="1.1" xmlns="http://www.w3.org/2000/svg" xmlns:xlink="http://www.w3.org/1999/xlink" width="167.14714" height="167.14714" viewBox="0,0,167.14714,167.14714"><defs><radialGradient cx="240" cy="180" r="73.57357" gradientUnits="userSpaceOnUse" id="color-1"><stop offset="0" stop-color="#37ff00"/><stop offset="1" stop-color="#37ff00" stop-opacity="0"/></radialGradient><radialGradient cx="240" cy="180" r="73.57357" gradientUnits="userSpaceOnUse" id="color-2"><stop offset="0" stop-color="#35ff00"/><stop offset="1" stop-color="#35ff00" stop-opacity="0"/></radialGradient><radialGradient cx="240.00001" cy="180.00001" r="34.83333" gradientUnits="userSpaceOnUse" id="color-3"><stop offset="0" stop-color="#006aff"/><stop offset="1" stop-color="#006aff" stop-opacity="0"/></radialGradient></defs><g transform="translate(-156.42642,-96.42642)"><g data-paper-data="{&quot;isPaintingLayer&quot;:true}" fill-rule="nonzero" stroke-linecap="butt" stroke-linejoin="miter" stroke-miterlimit="10" stroke-dasharray="" stroke-dashoffset="0" style="mix-blend-mode: normal"><path d="M166.42643,180c0,-40.63356 32.94001,-73.57357 73.57357,-73.57357c40.63356,0 73.57357,32.94001 73.57357,73.57357c0,40.63356 -32.94001,73.57357 -73.57357,73.57357c-40.63356,0 -73.57357,-32.94001 -73.57357,-73.57357z" fill="url(#color-1)" stroke="url(#color-2)" stroke-width="20"/><path d="M205.16668,180.00001c0,-19.23792 15.59541,-34.83333 34.83334,-34.83333c19.23792,0 34.83333,15.59541 34.83333,34.83333c0,19.23792 -15.59541,34.83334 -34.83333,34.83334c-19.23792,0 -34.83334,-15.59541 -34.83334,-34.83334z" fill="url(#color-3)" stroke="none" stroke-width="0"/><path d="M222.7492,180.00001c0,-9.52736 7.72345,-17.2508 17.2508,-17.2508c9.52736,0 17.2508,7.72345 17.2508,17.2508c0,9.52736 -7.72345,17.2508 -17.2508,17.2508c-9.52736,0 -17.2508,-7.72345 -17.2508,-17.2508z" fill="#0060e7" stroke="none" stroke-width="0"/></g></g></svg>