<svg version="1.1" xmlns="http://www.w3.org/2000/svg" xmlns:xlink="http://www.w3.org/1999/xlink" width="318.17001" height="120" viewBox="0,0,318.17001,120"><g transform="translate(18.17001,-120)"><g data-paper-data="{&quot;isPaintingLayer&quot;:true}" fill-rule="nonzero" stroke-linecap="butt" stroke-linejoin="miter" stroke-miterlimit="10" stroke-dasharray="" stroke-dashoffset="0" style="mix-blend-mode: normal"><path d="M240,240c-33.13709,0 -60,-26.86291 -60,-60c0,-33.13709 26.86291,-60 60,-60c33.13709,0 60,26.86291 60,60c0,33.13709 -26.86291,60 -60,60z" fill="#989898" stroke="none" stroke-width="0"/><path d="M219.5,208.875c0,-14.78274 0,-50.73157 0,-58.5c0,-2.89696 2.90178,-5.625 7.07422,-5.625c8.92335,0 23.6584,0 28.25,0c2.70113,0 5.67578,3.42556 5.67578,6.875c0,8.49406 0,44.92459 0,58.5c0,3.19579 -2.49041,5.125 -6.17578,5.125c-8.82941,0 -24.51767,0 -29.25,0c-2.66072,0 -5.57422,-2.43616 -5.57422,-6.375z" fill="#989898" stroke="#ffffff" stroke-width="2.5"/><path d="M249.57447,151.83333c-2.7259,0 -9.35476,0 -10.78723,0c-0.53419,0 -1.03724,-0.11043 -1.03724,-0.26922c0,-0.33958 0,-0.90033 0,-1.07507c0,-0.10279 0.63166,-0.21599 1.26773,-0.21599c1.56628,0 8.28397,0 10.78724,0c0.58929,0 0.94503,0.09477 0.94503,0.23502c0,0.33601 0,0.93304 0,1.11313c0,0.10126 -0.44922,0.21213 -1.17553,0.21213z" fill="#989898" stroke="#ffffff" stroke-width="1"/><path d="M225.5,202.29167v-47.25h29v47.25z" fill="#989898" stroke="#ffffff" stroke-width="2.5"/><path d="M231.88281,150.83334c0,-0.87445 0.70889,-1.58334 1.58334,-1.58334c0.87445,0 1.58333,0.70889 1.58333,1.58334c0,0.87445 -0.70888,1.58333 -1.58333,1.58333c-0.87445,0 -1.58334,-0.70888 -1.58334,-1.58333z" fill="#989898" stroke="#ffffff" stroke-width="1"/><path d="M236.45833,209c0,-1.95601 1.58566,-3.54167 3.54167,-3.54167c1.95601,0 3.54167,1.58566 3.54167,3.54167c0,1.95601 -1.58566,3.54167 -3.54167,3.54167c-1.95601,0 -3.54167,-1.58566 -3.54167,-3.54167z" fill="#989898" stroke="#ffffff" stroke-width="1.5"/><text transform="translate(-18.17,186) scale(0.5,0.5)" font-size="40" xml:space="preserve" fill="#ffffff" fill-rule="nonzero" stroke="#000000" stroke-width="0" stroke-linecap="butt" stroke-linejoin="miter" stroke-miterlimit="10" stroke-dasharray="" stroke-dashoffset="0" font-family="Sans Serif" font-weight="normal" text-anchor="start" style="mix-blend-mode: normal"><tspan x="0" dy="0">Check this setting▶︎</tspan></text></g></g></svg>