<svg version="1.1" xmlns="http://www.w3.org/2000/svg" xmlns:xlink="http://www.w3.org/1999/xlink" width="495.4955" height="370.87087" viewBox="0,0,495.4955,370.87087"><defs><radialGradient cx="165" cy="113.00007" r="73.57357" gradientUnits="userSpaceOnUse" id="color-1"><stop offset="0" stop-color="#37ff00"/><stop offset="1" stop-color="#37ff00" stop-opacity="0"/></radialGradient><radialGradient cx="165" cy="113.00007" r="73.57357" gradientUnits="userSpaceOnUse" id="color-2"><stop offset="0" stop-color="#35ff00"/><stop offset="1" stop-color="#35ff00" stop-opacity="0"/></radialGradient><radialGradient cx="165.97447" cy="112.99859" r="95.47341" gradientUnits="userSpaceOnUse" id="color-3"><stop offset="0" stop-color="#ffffff"/><stop offset="1" stop-color="#ffffff" stop-opacity="0"/></radialGradient><radialGradient cx="164.47448" cy="112.49859" r="34.83333" gradientUnits="userSpaceOnUse" id="color-4"><stop offset="0" stop-color="#006aff"/><stop offset="1" stop-color="#006aff" stop-opacity="0"/></radialGradient><radialGradient cx="271.00001" cy="134" r="34.83333" gradientUnits="userSpaceOnUse" id="color-5"><stop offset="0" stop-color="#ff0000"/><stop offset="1" stop-color="#ff0000" stop-opacity="0"/></radialGradient><radialGradient cx="362.01202" cy="230.01214" r="34.83333" gradientUnits="userSpaceOnUse" id="color-6"><stop offset="0" stop-color="#ffeb00"/><stop offset="1" stop-color="#ffeb00" stop-opacity="0"/></radialGradient><linearGradient x1="46.79885" y1="252.8091" x2="46.79885" y2="328.45232" gradientUnits="userSpaceOnUse" id="color-7"><stop offset="0" stop-color="#808080"/><stop offset="1" stop-color="#404040"/></linearGradient><linearGradient x1="46.79885" y1="252.8091" x2="46.79885" y2="328.45232" gradientUnits="userSpaceOnUse" id="color-8"><stop offset="0" stop-color="#808080"/><stop offset="1" stop-color="#404040"/></linearGradient><linearGradient x1="83.78991" y1="254.21711" x2="83.78991" y2="328.36172" gradientUnits="userSpaceOnUse" id="color-9"><stop offset="0" stop-color="#808080"/><stop offset="1" stop-color="#404040"/></linearGradient><linearGradient x1="83.78991" y1="254.21711" x2="83.78991" y2="328.36172" gradientUnits="userSpaceOnUse" id="color-10"><stop offset="0" stop-color="#808080"/><stop offset="1" stop-color="#404040"/></linearGradient><linearGradient x1="107.12531" y1="265.40268" x2="107.12531" y2="328.3823" gradientUnits="userSpaceOnUse" id="color-11"><stop offset="0" stop-color="#808080"/><stop offset="1" stop-color="#404040"/></linearGradient><linearGradient x1="107.12531" y1="265.40268" x2="107.12531" y2="328.3823" gradientUnits="userSpaceOnUse" id="color-12"><stop offset="0" stop-color="#808080"/><stop offset="1" stop-color="#404040"/></linearGradient><linearGradient x1="130.69188" y1="264.93363" x2="130.69188" y2="327.8814" gradientUnits="userSpaceOnUse" id="color-13"><stop offset="0" stop-color="#808080"/><stop offset="1" stop-color="#404040"/></linearGradient><linearGradient x1="130.69188" y1="264.93363" x2="130.69188" y2="327.8814" gradientUnits="userSpaceOnUse" id="color-14"><stop offset="0" stop-color="#808080"/><stop offset="1" stop-color="#404040"/></linearGradient><linearGradient x1="164.71578" y1="252.67716" x2="164.71578" y2="328.14126" gradientUnits="userSpaceOnUse" id="color-15"><stop offset="0" stop-color="#808080"/><stop offset="1" stop-color="#404040"/></linearGradient><linearGradient x1="164.71578" y1="252.67716" x2="164.71578" y2="328.14126" gradientUnits="userSpaceOnUse" id="color-16"><stop offset="0" stop-color="#808080"/><stop offset="1" stop-color="#404040"/></linearGradient></defs><g transform="translate(7.74775,5.43542)"><g data-paper-data="{&quot;isPaintingLayer&quot;:true}" stroke-miterlimit="10" stroke-dasharray="" stroke-dashoffset="0" style="mix-blend-mode: normal"><path d="M-7.74775,365.43545v-370.87087h495.4955v370.87087z" fill="#4d4d4d" fill-rule="nonzero" stroke="none" stroke-width="0" stroke-linecap="butt" stroke-linejoin="miter"/><path d="M91.42643,113.00007c0,-40.63356 32.94001,-73.57357 73.57357,-73.57357c40.63356,0 73.57357,32.94001 73.57357,73.57357c0,40.63356 -32.94001,73.57357 -73.57357,73.57357c-40.63356,0 -73.57357,-32.94001 -73.57357,-73.57357z" fill="url(#color-1)" fill-rule="nonzero" stroke="url(#color-2)" stroke-width="20" stroke-linecap="butt" stroke-linejoin="miter"/><path d="M70.59731,95.37857l95.15924,18.31416l-83.76077,-49.24247l27.21733,-30.06122l56.82433,79.69517l-17.07932,-96.55902l34.68544,0.1453l-18.25218,96.34975l56.37686,-80.34907l27.71896,30.03182l-84.23411,50.19174l95.99032,-19.22834l0.10823,36.05034l-95.35845,-16.44169l77.57707,57.01395l-28.05103,25.15272l-49.84725,-82.13569l17.86028,94.16597l-35.22687,-0.04718l17.42429,-94.60202l-47.73964,83.55529l-27.26799,-23.1222l75.4595,-60.66867l-93.54482,25.9414z" fill="url(#color-3)" fill-rule="nonzero" stroke="none" stroke-width="0" stroke-linecap="butt" stroke-linejoin="miter"/><g fill-rule="nonzero" stroke="none" stroke-width="0" stroke-linecap="butt" stroke-linejoin="miter"><path d="M129.64115,112.49859c0,-19.23792 15.59541,-34.83333 34.83334,-34.83333c19.23792,0 34.83333,15.59541 34.83333,34.83333c0,19.23792 -15.59541,34.83334 -34.83333,34.83334c-19.23792,0 -34.83334,-15.59541 -34.83334,-34.83334z" fill="url(#color-4)"/><path d="M147.22367,112.49859c0,-9.52736 7.72345,-17.2508 17.2508,-17.2508c9.52736,0 17.2508,7.72345 17.2508,17.2508c0,9.52736 -7.72345,17.2508 -17.2508,17.2508c-9.52736,0 -17.2508,-7.72345 -17.2508,-17.2508z" fill="#0060e7"/></g><g fill="#e4ba72" stroke-width="0"><g fill-rule="nonzero" stroke="none" stroke-linecap="butt" stroke-linejoin="miter"><path d="M197.95844,95.75634v-23.87314h23.87314v23.87314z"/><path d="M198.10836,167.99691v-23.87316h23.87316v23.87316z"/></g><g fill-rule="evenodd" stroke="#231f20" stroke-linecap="round" stroke-linejoin="round"><g><g><path d="M197.88279,167.99105l-0.00723,-95.77023l24.18885,0.14773l-0.03983,95.54831z" opacity="0.1"/><path d="M197.8828,167.81412l-0.00723,-95.77023l24.18885,0.14773l-0.03983,95.54831z" opacity="0.1"/></g><path d="M197.8828,167.9026l-0.00723,-95.77023l24.18885,0.14773l-0.03983,95.54831z" opacity="0.1"/><path d="M197.8828,167.72564l-0.00723,-95.77023l24.18885,0.14773l-0.03983,95.54831z" opacity="0.1"/></g><g><g><path d="M197.8828,167.94679l-0.00723,-95.77023l24.18885,0.14773l-0.03983,95.54831z" opacity="0.1"/><path d="M197.8828,167.76979l-0.00723,-95.77023l24.18885,0.14773l-0.03983,95.54831z" opacity="0.1"/></g><path d="M197.8828,167.85837l-0.00723,-95.77023l24.18885,0.14773l-0.03983,95.54831z" opacity="0.1"/><path d="M197.8828,167.68141l-0.00723,-95.77023l24.18885,0.14773l-0.03983,95.54831z" opacity="0.1"/></g><g><g><path d="M197.88278,167.95785l-0.00723,-95.77023l24.18885,0.14773l-0.03983,95.54831z" opacity="0.1"/><path d="M197.88278,167.78095l-0.00723,-95.77023l24.18885,0.14773l-0.03983,95.54831z" opacity="0.1"/></g><path d="M197.88278,167.86941l-0.00723,-95.77023l24.18885,0.14773l-0.03983,95.54831z" opacity="0.1"/><path d="M197.88278,167.69242l-0.00723,-95.77023l24.18885,0.14773l-0.03983,95.54831z" opacity="0.1"/></g><g><g><path d="M197.88277,167.95785l-0.00723,-95.77023l24.18885,0.14773l-0.03983,95.54831z" opacity="0.1"/><path d="M197.88277,167.78094l-0.00723,-95.77023l24.18885,0.14773l-0.03983,95.54831z" opacity="0.1"/></g><path d="M197.88277,167.86941l-0.00723,-95.77023l24.18885,0.14773l-0.03983,95.54831z" opacity="0.1"/><path d="M197.88277,167.69242l-0.00723,-95.77023l24.18885,0.14773l-0.03983,95.54831z" opacity="0.1"/></g></g></g><g fill-rule="nonzero" stroke="none" stroke-width="0" stroke-linecap="butt" stroke-linejoin="miter"><path d="M236.16667,134c0,-19.23792 15.59541,-34.83333 34.83334,-34.83333c19.23792,0 34.83333,15.59541 34.83333,34.83333c0,19.23792 -15.59541,34.83334 -34.83333,34.83334c-19.23792,0 -34.83334,-15.59541 -34.83334,-34.83334z" fill="url(#color-5)"/><path d="M253.7492,134c0,-9.52736 7.72345,-17.2508 17.2508,-17.2508c9.52736,0 17.2508,7.72345 17.2508,17.2508c0,9.52736 -7.72345,17.2508 -17.2508,17.2508c-9.52736,0 -17.2508,-7.72345 -17.2508,-17.2508z" fill="#e80000"/></g><g fill-rule="nonzero" stroke="none" stroke-width="0" stroke-linecap="butt" stroke-linejoin="miter"><path d="M361.5541,264.84236c-19.23626,-0.2529 -34.6253,-16.05197 -34.3724,-35.28824c0.2529,-19.23626 16.05197,-34.6253 35.28823,-34.3724c19.23626,0.2529 34.62532,16.05197 34.37241,35.28823c-0.2529,19.23626 -16.05198,34.62532 -35.28825,34.37241z" fill="url(#color-6)"/><path d="M344.76121,230.01214c0,-9.52736 7.72345,-17.2508 17.2508,-17.2508c9.52736,0 17.2508,7.72345 17.2508,17.2508c0,9.52736 -7.72345,17.2508 -17.2508,17.2508c-9.52736,0 -17.2508,-7.72345 -17.2508,-17.2508z" fill="#e7d300"/></g><g fill="#ffffff" fill-rule="nonzero" stroke="#ffffff" stroke-width="1.5" stroke-linecap="butt" stroke-linejoin="miter"><path d="M334.58177,156.68974c4.74251,3.36408 6.75355,6.29999 8.22854,9.73822c1.47499,3.43824 2.24115,4.9584 1.10937,3.85316c-1.13178,-1.10524 -4.58747,-8.67244 -10.33609,-12.86351c-5.74863,-4.19106 -10.98387,-4.05333 -17.64626,-7.53716c-6.6624,-3.48383 2.94473,0.32181 4.42253,0.62235c1.4778,0.30053 9.47942,2.82285 14.22192,6.18693z"/><path d="M322.84777,167.96828c4.74251,3.36408 6.75356,6.29999 8.22854,9.73822c1.47499,3.43824 2.24115,4.95841 1.10936,3.85317c-1.13178,-1.10524 -4.58747,-8.67245 -10.33609,-12.86351c-5.74863,-4.19106 -10.98387,-4.05333 -17.64626,-7.53715c-6.6624,-3.48383 2.94473,0.32181 4.42253,0.62234c1.4778,0.30053 9.47942,2.82285 14.22192,6.18693z"/><path d="M307.38023,178.46889c4.74251,3.36408 6.75355,6.29999 8.22854,9.73822c1.47499,3.43824 2.24115,4.95841 1.10937,3.85317c-1.13178,-1.10524 -4.58747,-8.67245 -10.3361,-12.86351c-5.74863,-4.19106 -10.98386,-4.05333 -17.64626,-7.53715c-6.6624,-3.48383 2.94473,0.32181 4.42253,0.62234c1.4778,0.30053 9.47942,2.82285 14.22192,6.18693z"/></g><g fill-rule="nonzero" stroke-width="5" stroke-linecap="butt" stroke-linejoin="miter"><path d="M38.46075,271.30906c0,0 0.85129,-2.76972 1.80627,-4.24334c0.95498,-1.47361 2.24411,-2.00666 2.24411,-2.00666l11.5416,-12.25l6.15218,12.25l1.70543,12h-12.36433l-0.15799,38.99984l5.84738,-0.01967l-0.04735,-24.82402l10.55252,0.12692l-0.12564,37.11024l-22.39325,-0.11884c0,0 -2.24909,-1.23712 -3.25938,-2.59672c-1.01029,-1.3596 -12.57783,-10.50066 -12.77185,-17.53314c-0.01596,-0.57837 11.2703,-36.89461 11.2703,-36.89461z" fill="url(#color-7)" stroke="url(#color-8)"/><path d="M70.16749,265.18791l8.31205,-10.97092l2.77321,11.0241l-0.15799,50.62137l5.84737,-0.01967l-0.04735,-50.57369l10.55252,0.12691l0.06867,56.93522c0,0 -0.9199,2.74741 -1.59739,3.58659c-0.88778,1.09968 -3.27105,2.44388 -3.27105,2.44388l-17.71913,-0.2246c0,0 -2.24909,-1.23711 -3.25938,-2.59671c-1.01029,-1.3596 -1.60518,-3.94982 -1.60518,-3.94982z" fill="url(#color-9)" stroke="url(#color-10)"/><path d="M101.6345,265.40268l11.08526,0.05318l-0.15799,62.92651l-11.03092,-0.19661z" fill="url(#color-11)" stroke="url(#color-12)"/><path d="M116.93603,264.93363c0,0 17.63959,0.0337 22.54401,0.04307c2.37567,0.00454 5.25659,2.06304 5.22773,6.64183c-0.05152,8.17325 -0.22124,37.20144 -0.29731,50.1424c-0.02303,3.9164 -2.45782,6.1352 -4.54236,6.12041c-4.72978,-0.03357 -23.19232,-0.16463 -23.19232,-0.16463zM133.65006,317.16871l-0.02253,-40.99075l-6.00109,0.02642l0.02253,40.99075z" fill="url(#color-13)" stroke="url(#color-14)"/><path d="M149.03493,265.16159l6.12758,-12.48448l14.8675,12.53766l10.47026,1.61406l-9.04237,10.0113l-11.56068,0.02029l0.01876,14.81173l8.94347,-0.00001l8.45304,1.26331l-8.54552,10.08757l-8.83655,0.04445l0.01675,13.21492l11.27895,-0.00068l6.58887,1.57847l-8.52589,10.2811l-20.35781,-0.19661z" fill="url(#color-15)" stroke="url(#color-16)"/></g><g fill="#005880" fill-rule="nonzero" stroke="#005280" stroke-width="5" stroke-linecap="butt" stroke-linejoin="miter"><path d="M26.94088,256.64234c0,0 0.99833,-2.76973 2.11827,-4.24334c1.11994,-1.47361 2.63173,-2.00666 2.63173,-2.00666h20.75l2,12h-14.5l-0.18528,38.99983l6.85738,-0.01966l-0.05553,-24.82402l12.37524,0.12691l-0.14735,37.11024l-26.2612,-0.11884c0,0 -2.63758,-1.23712 -3.82237,-2.59672c-1.18479,-1.3596 -1.88244,-3.94981 -1.88244,-3.94981z"/><path d="M64.12428,250.52136l13,0.05318l-0.18528,50.62136l6.85738,-0.01966l-0.05553,-50.57369l12.37524,0.12691l0.08053,56.93521c0,0 -1.0788,2.74741 -1.8733,3.58659c-1.04112,1.09968 -3.83605,2.44388 -3.83605,2.44388l-20.77973,-0.2246c0,0 -2.63758,-1.23712 -3.82237,-2.59672c-1.18479,-1.3596 -1.88244,-3.94981 -1.88244,-3.94981z"/><path d="M101.02653,250.73606l13,0.05318l-0.18528,62.92651l-12.93627,-0.19661z"/><path d="M118.97107,250.26706c0,0 20.68645,0.0337 26.43801,0.04307c2.78601,0.00454 6.16455,2.06304 6.1307,6.64183c-0.06042,8.17325 -0.25945,37.20143 -0.34866,50.14239c-0.027,3.9164 -2.88235,6.13521 -5.32695,6.12042c-5.54675,-0.03357 -27.1983,-0.16463 -27.1983,-0.16463zM138.57209,302.50194l-0.02642,-40.99075l-7.03765,0.02642l0.02642,40.99075z"/><path d="M156.61437,250.49494l24.62153,0.05318l1.67452,11.62537l-13.55754,0.02028l0.02201,14.81173l10.48826,-0.00001l-0.10846,11.35087l-10.36287,0.04446l0.01964,13.21492l13.22714,-0.00069l-2.2716,11.85958l-23.87418,-0.19661z"/></g><g fill="#0075e3" fill-rule="nonzero" stroke="none" stroke-width="0" stroke-linecap="butt" stroke-linejoin="miter"><path d="M26.94087,257.14234c0,0 0.99833,-2.76973 2.11827,-4.24334c1.11994,-1.47361 2.63173,-2.00666 2.63173,-2.00666h20.75l2,12h-14.5l-0.18528,38.99983l6.85738,-0.01966l-0.05553,-24.82402l12.37524,0.12691l-0.14735,37.11024l-26.2612,-0.11884c0,0 -2.63758,-1.23712 -3.82237,-2.59672c-1.18479,-1.3596 -1.88244,-3.94981 -1.88244,-3.94981z"/><path d="M64.12427,251.02137l13,0.05318l-0.18528,50.62136l6.85738,-0.01966l-0.05553,-50.57369l12.37524,0.12691l0.08053,56.93521c0,0 -1.0788,2.74741 -1.8733,3.58659c-1.04112,1.09968 -3.83605,2.44388 -3.83605,2.44388l-20.77973,-0.2246c0,0 -2.63758,-1.23712 -3.82237,-2.59672c-1.18479,-1.3596 -1.88244,-3.94981 -1.88244,-3.94981z"/><path d="M101.02652,251.23606l13,0.05318l-0.18528,62.92651l-12.93627,-0.19661z"/><path d="M118.97106,250.76707c0,0 20.68645,0.0337 26.43801,0.04307c2.78601,0.00454 6.16455,2.06304 6.1307,6.64183c-0.06042,8.17325 -0.25945,37.20143 -0.34866,50.14239c-0.027,3.9164 -2.88235,6.13521 -5.32695,6.12042c-5.54675,-0.03357 -27.1983,-0.16463 -27.1983,-0.16463zM138.57209,303.00194l-0.02642,-40.99075l-7.03765,0.02642l0.02642,40.99075z"/><path d="M156.61437,250.99495l24.62153,0.05318l1.67452,11.62537l-13.55754,0.02028l0.02201,14.81173l10.48826,-0.00001l-0.10846,11.35087l-10.36287,0.04446l0.01964,13.21492l13.22714,-0.00069l-2.2716,11.85958l-23.87418,-0.19661z"/></g></g></g></svg>