<svg version="1.1" xmlns="http://www.w3.org/2000/svg" xmlns:xlink="http://www.w3.org/1999/xlink" width="318.17001" height="120" viewBox="0,0,318.17001,120"><g transform="translate(18.17001,-120)"><g data-paper-data="{&quot;isPaintingLayer&quot;:true}" fill-rule="nonzero" stroke-linejoin="miter" stroke-miterlimit="10" stroke-dasharray="" stroke-dashoffset="0" style="mix-blend-mode: normal"><path d="M240,240c-33.13709,0 -60,-26.86291 -60,-60c0,-33.13709 26.86291,-60 60,-60c33.13709,0 60,26.86291 60,60c0,33.13709 -26.86291,60 -60,60z" fill="#989898" stroke="none" stroke-width="0" stroke-linecap="butt"/><path d="M268.875,191.5c-14.78274,0 -50.73157,0 -58.5,0c-2.89696,0 -5.625,-2.80741 -5.625,-6.84416c0,-8.63316 0,-22.88902 0,-27.3313c0,-2.61329 3.42556,-5.4912 6.875,-5.4912c8.49406,0 44.92459,0 58.5,0c3.19579,0 5.125,2.40942 5.125,5.97494c0,8.54227 0,23.72034 0,28.29878c0,2.57419 -2.43616,5.39294 -6.375,5.39294z" fill="#989898" stroke="#ffffff" stroke-width="2.5" stroke-linecap="butt"/><path d="M221.33334,200l8.29629,-8h20.74074l8.2963,8z" fill="#989898" stroke="#ffffff" stroke-width="2.5" stroke-linecap="butt"/><g stroke="#ffffff"><path d="M209.88881,217.92359l13.38276,-12.9048h33.45688l13.38276,12.9048z" fill="#989898" stroke-width="2.5" stroke-linecap="butt"/><path d="M264.82957,213.03052h-49.68348" fill="none" stroke-width="1" stroke-linecap="round"/><path d="M261.28074,209.74566h-42.90845" fill="none" stroke-width="1" stroke-linecap="round"/><path d="M240,204.62704v13.22742" fill="none" stroke-width="1" stroke-linecap="round"/><path d="M233.77804,218.64304l1.15222,-13.55511" fill="none" stroke-width="1" stroke-linecap="round"/><path d="M216.95572,218.64304l12.63208,-14.16187" fill="none" stroke-width="1" stroke-linecap="round"/><path d="M232.39539,204.25707l-6.68285,14.29506" fill="none" stroke-width="1" stroke-linecap="round"/><path d="M244.83929,205.14554l1.15222,13.4642" data-paper-data="{&quot;index&quot;:null}" fill="none" stroke-width="1" stroke-linecap="round"/><path d="M262.81384,218.60974l-12.9048,-14.25278" data-paper-data="{&quot;index&quot;:null}" fill="none" stroke-width="1" stroke-linecap="round"/><path d="M247.37417,204.49649l6.68284,14.11325" data-paper-data="{&quot;index&quot;:null}" fill="none" stroke-width="1" stroke-linecap="round"/></g><path d="M269.69075,211.48323c-0.92724,-0.90037 -3.12865,-3.03796 -3.6834,-3.57664c-0.24766,-0.24048 -0.32692,-0.48689 -0.04066,-0.48689c1.12148,0 3.95818,0 4.73684,0c0.38403,0 1.03272,0.22366 1.3843,0.56504c0.95548,0.92779 2.80644,2.72509 3.36304,3.26556c0.31027,0.30128 0.12734,0.63606 -0.32628,0.63606c-0.71363,0 -2.863,0 -4.10526,0c-0.54353,0 -1.07234,-0.15433 -1.32857,-0.40313z" fill="#989898" stroke="#ffffff" stroke-width="2" stroke-linecap="butt"/><text transform="translate(-18.17001,186) scale(0.5,0.5)" font-size="40" xml:space="preserve" fill="#ffffff" fill-rule="nonzero" stroke="#000000" stroke-width="0" stroke-linecap="butt" stroke-linejoin="miter" stroke-miterlimit="10" stroke-dasharray="" stroke-dashoffset="0" font-family="Sans Serif" font-weight="normal" text-anchor="start" style="mix-blend-mode: normal"><tspan x="0" dy="0">Check this setting▶︎</tspan></text></g></g></svg>